<svg width="111" height="111" viewBox="0 0 111 111" fill="none" xmlns="http://www.w3.org/2000/svg">
<path d="M32.375 32.375C32.375 29.9217 33.3496 27.569 35.0843 25.8343C36.819 24.0996 39.1717 23.125 41.625 23.125H69.375C71.8283 23.125 74.181 24.0996 75.9157 25.8343C77.6504 27.569 78.625 29.9217 78.625 32.375V37C78.625 39.4533 77.6504 41.806 75.9157 43.5407C74.181 45.2754 71.8283 46.25 69.375 46.25H41.625C39.1717 46.25 36.819 45.2754 35.0843 43.5407C33.3496 41.806 32.375 39.4533 32.375 37V32.375ZM41.625 30.0625C41.0117 30.0625 40.4235 30.3061 39.9898 30.7398C39.5561 31.1735 39.3125 31.7617 39.3125 32.375V37C39.3125 37.6133 39.5561 38.2015 39.9898 38.6352C40.4235 39.0689 41.0117 39.3125 41.625 39.3125H69.375C69.9883 39.3125 70.5765 39.0689 71.0102 38.6352C71.4439 38.2015 71.6875 37.6133 71.6875 37V32.375C71.6875 31.7617 71.4439 31.1735 71.0102 30.7398C70.5765 30.3061 69.9883 30.0625 69.375 30.0625H41.625ZM38.1562 67.0625C39.6895 67.0625 41.16 66.4534 42.2442 65.3692C43.3284 64.285 43.9375 62.8145 43.9375 61.2812C43.9375 59.748 43.3284 58.2775 42.2442 57.1933C41.16 56.1091 39.6895 55.5 38.1562 55.5C36.623 55.5 35.1525 56.1091 34.0683 57.1933C32.9841 58.2775 32.375 59.748 32.375 61.2812C32.375 62.8145 32.9841 64.285 34.0683 65.3692C35.1525 66.4534 36.623 67.0625 38.1562 67.0625ZM43.9375 79.7812C43.9375 81.3145 43.3284 82.785 42.2442 83.8692C41.16 84.9534 39.6895 85.5625 38.1562 85.5625C36.623 85.5625 35.1525 84.9534 34.0683 83.8692C32.9841 82.785 32.375 81.3145 32.375 79.7812C32.375 78.248 32.9841 76.7775 34.0683 75.6933C35.1525 74.6091 36.623 74 38.1562 74C39.6895 74 41.16 74.6091 42.2442 75.6933C43.3284 76.7775 43.9375 78.248 43.9375 79.7812ZM33.5312 101.75H55.9671C53.8654 99.692 52.0529 97.3581 50.579 94.8125H33.5312C31.3847 94.8125 29.326 93.9598 27.8081 92.4419C26.2902 90.924 25.4375 88.8653 25.4375 86.7188V24.2812C25.4375 19.8135 29.0635 16.1875 33.5312 16.1875H77.4688C81.9365 16.1875 85.5625 19.8135 85.5625 24.2812V46.9946C87.5975 47.4433 89.5585 48.0769 91.427 48.8816C91.7353 48.3915 92.095 47.9356 92.5 47.5219V24.2812C92.5 20.2947 90.9164 16.4715 88.0975 13.6526C85.2785 10.8336 81.4553 9.25 77.4688 9.25H33.5312C29.5447 9.25 25.7215 10.8336 22.9026 13.6526C20.0836 16.4715 18.5 20.2947 18.5 24.2812V86.7188C18.5 88.6927 18.8888 90.6473 19.6442 92.471C20.3996 94.2946 21.5068 95.9517 22.9026 97.3475C24.2983 98.7432 25.9554 99.8504 27.779 100.606C29.6027 101.361 31.5573 101.75 33.5312 101.75ZM98.2812 69.375C99.2012 69.375 100.084 69.0095 100.734 68.359C101.385 67.7085 101.75 66.8262 101.75 65.9062V53.1875C101.75 52.2675 101.385 51.3852 100.734 50.7347C100.084 50.0842 99.2012 49.7188 98.2812 49.7188C97.3613 49.7188 96.479 50.0842 95.8285 50.7347C95.178 51.3852 94.8125 52.2675 94.8125 53.1875V56.0828C89.7551 52.4506 83.6231 50.6249 77.4026 50.8991C71.1822 51.1734 65.2347 53.5317 60.5166 57.5949C55.7985 61.6581 52.584 67.1899 51.39 73.3009C50.196 79.4119 51.0919 85.7468 53.9336 91.2871C56.7753 96.8273 61.3978 101.251 67.0575 103.846C72.7173 106.442 79.0855 107.058 85.1381 105.597C91.1907 104.136 96.576 100.681 100.428 95.789C104.28 90.8969 106.374 84.8515 106.375 78.625C106.375 77.705 106.01 76.8227 105.359 76.1722C104.709 75.5217 103.826 75.1562 102.906 75.1562C101.986 75.1562 101.104 75.5217 100.453 76.1722C99.803 76.8227 99.4375 77.705 99.4375 78.625C99.4377 83.3416 97.8359 87.9183 94.8945 91.6053C91.9531 95.2924 87.8466 97.8709 83.2478 98.9186C78.6491 99.9662 73.8309 99.4208 69.5828 97.3716C65.3346 95.3224 61.9085 91.8911 59.8657 87.6398C57.823 83.3886 57.2848 78.5695 58.3394 73.9724C59.394 69.3753 61.9788 65.2727 65.6703 62.3369C69.3618 59.401 73.9409 57.8061 78.6575 57.8135C83.374 57.8209 87.9482 59.4301 91.6305 62.3774L91.6675 62.4051C91.6827 62.4162 91.6982 62.427 91.7138 62.4375H85.5625C84.6425 62.4375 83.7602 62.803 83.1097 63.4535C82.4592 64.104 82.0938 64.9863 82.0938 65.9062C82.0938 66.8262 82.4592 67.7085 83.1097 68.359C83.7602 69.0095 84.6425 69.375 85.5625 69.375H98.2812Z" fill="black"/>
</svg>
