<svg width="116" height="96" viewBox="0 0 116 96" fill="none" xmlns="http://www.w3.org/2000/svg">
<path d="M31.9012 8.99933C31.9012 13.9677 28.0045 17.9987 23.2016 17.9987C18.3987 17.9987 14.502 13.9677 14.502 8.99933C14.502 4.03095 18.3987 0 23.2016 0C28.0045 0 31.9012 4.03095 31.9012 8.99933ZM26.1015 45.3154V57.5207L35.3448 67.0825C36.6316 68.4136 37.4835 70.1198 37.7734 71.9759L40.5283 89.0183C41.0539 92.2806 38.9153 95.3741 35.7617 95.9178C32.6081 96.4615 29.6176 94.2492 29.092 90.987L26.5002 74.8819L12.1096 59.9955C9.93475 57.7457 8.70231 54.6897 8.70231 51.5024V34.9849C8.70231 28.9103 13.4508 23.9982 19.3231 23.9982C23.691 23.9982 27.7508 26.248 30.1794 29.9978L38.7703 43.328L40.6008 44.2654V29.9978C40.6008 26.6793 43.1926 23.9982 46.4005 23.9982H69.5995C72.8074 23.9982 75.3992 26.6793 75.3992 29.9978V44.2842L77.2297 43.3468L85.8206 29.9978C88.2311 26.248 92.309 23.9982 96.6769 23.9982C102.549 23.9982 107.298 28.9103 107.298 34.9849V51.5024C107.298 54.6897 106.083 57.7457 103.908 59.9955L89.5179 74.8819L86.9261 90.987C86.4005 94.2492 83.4101 96.4615 80.2565 95.9178C77.1029 95.3741 74.9642 92.2806 75.4898 89.0183L78.2447 71.9759C78.5347 70.1198 79.3865 68.4136 80.6733 67.0825L89.9166 57.5207V45.3154L86.473 50.6587C85.6393 51.9711 84.4794 53.021 83.1201 53.7147L72.3181 59.3018C71.8831 59.5455 71.43 59.7143 70.9406 59.8268C70.4694 59.9393 69.9801 59.9955 69.5088 59.9768H46.5274C46.0743 59.9955 45.6212 59.9393 45.1681 59.8455C44.6425 59.733 44.1531 59.5456 43.7 59.2831L32.9162 53.696C31.5569 53.0023 30.415 51.9336 29.5632 50.64L26.1196 45.2966L26.1015 45.3154ZM0.41957 87.7622L9.08291 65.3576L18 74.5819L11.1853 92.2056C9.98912 95.2804 6.61803 96.7803 3.64567 95.5429C0.673308 94.3055 -0.776624 90.837 0.41957 87.7622ZM92.7984 17.9987C87.9955 17.9987 84.0988 13.9677 84.0988 8.99933C84.0988 4.03095 87.9955 0 92.7984 0C97.6013 0 101.498 4.03095 101.498 8.99933C101.498 13.9677 97.6013 17.9987 92.7984 17.9987ZM106.917 65.3576L115.58 87.7622C116.777 90.837 115.327 94.3242 112.354 95.5616C109.382 96.799 106.011 95.2991 104.815 92.2244L98 74.6007L106.917 65.3764V65.3576Z" fill="black"/>
<rect x="40.6001" y="24.0634" width="35.38" height="36.095" rx="10" fill="#E73336"/>
</svg>
