<svg width="46" height="53" viewBox="0 0 46 53" fill="none" xmlns="http://www.w3.org/2000/svg">
<path d="M39.729 15.0119L30.0238 5.3067V15.0119H39.729ZM41.2827 18.7649H26.2708V3.75297H3.75297V48.7887H41.2827V18.7649ZM1.87649 0H30.0238L45.0357 15.0119V50.6651C45.0357 51.1628 44.838 51.6401 44.4861 51.992C44.1342 52.3439 43.6569 52.5416 43.1592 52.5416H1.87649C1.37881 52.5416 0.90152 52.3439 0.549611 51.992C0.197701 51.6401 0 51.1628 0 50.6651V1.87649C0 1.37881 0.197701 0.90152 0.549611 0.54961C0.90152 0.197701 1.37881 0 1.87649 0ZM20.5475 34.137L31.1609 23.5236L33.8143 26.177L20.5475 39.4438L11.2589 30.1589L13.9123 27.5018L20.5475 34.137Z" fill="black"/>
</svg>
