<svg width="152" height="94" viewBox="0 0 152 94" fill="none" xmlns="http://www.w3.org/2000/svg">
<path d="M51.3773 44.2739C62.6808 32.9092 90.9465 52.7924 51.3773 78.3613C11.808 52.7924 40.0737 32.9092 51.3773 44.2739Z" fill="#E73336"/>
<path d="M145.729 44.0119L136.024 34.3067V44.0119H145.729ZM147.283 47.7649H132.271V32.753H109.753V77.7887H147.283V47.7649ZM107.876 29H136.024L151.036 44.0119V79.6651C151.036 80.1628 150.838 80.6401 150.486 80.992C150.134 81.3439 149.657 81.5416 149.159 81.5416H107.876C107.379 81.5416 106.902 81.3439 106.55 80.992C106.198 80.6401 106 80.1628 106 79.6651V30.8765C106 30.3788 106.198 29.9015 106.55 29.5496C106.902 29.1977 107.379 29 107.876 29ZM126.548 63.137L137.161 52.5236L139.814 55.177L126.548 68.4437L117.259 59.1589L119.912 56.5018L126.548 63.137Z" fill="black"/>
<path d="M55.7521 1.9889C54.4782 0.715409 52.7507 0 50.9495 0C49.1482 0 47.4207 0.715409 46.1468 1.9889L0.993669 47.1352C0.356797 47.773 -0.000636118 48.6377 8.49878e-07 49.539C0.000637818 50.4403 0.359293 51.3044 0.997065 51.9413C1.63484 52.5782 2.49949 52.9356 3.4008 52.935C4.30211 52.9343 5.16625 52.5757 5.80312 51.9379L10.1914 47.5496V83.505C10.1914 86.2074 11.2649 88.7992 13.1758 90.7101C15.0867 92.621 17.6785 93.6945 20.3809 93.6945H81.518C84.2204 93.6945 86.8122 92.621 88.7231 90.7101C90.634 88.7992 91.7075 86.2074 91.7075 83.505V47.5496L96.0958 51.9379C96.7327 52.5757 97.5968 52.9343 98.4981 52.935C99.3994 52.9356 100.264 52.5782 100.902 51.9413C101.54 51.3044 101.898 50.4403 101.899 49.539C101.9 48.6377 101.542 47.773 100.905 47.1352L84.9145 31.1513V8.78191C84.9145 7.8811 84.5567 7.01719 83.9197 6.38022C83.2827 5.74325 82.4188 5.38541 81.518 5.38541H74.725C73.8242 5.38541 72.9603 5.74325 72.3233 6.38022C71.6863 7.01719 71.3285 7.8811 71.3285 8.78191V17.5653L55.7521 1.9889ZM84.9145 40.7566V83.505C84.9145 84.4058 84.5567 85.2697 83.9197 85.9067C83.2827 86.5437 82.4188 86.9015 81.518 86.9015H20.3809C19.4801 86.9015 18.6162 86.5437 17.9792 85.9067C17.3423 85.2697 16.9844 84.4058 16.9844 83.505V40.7566L50.9495 6.79156L84.9145 40.7566Z" fill="black"/>
</svg>
