<svg width="96" height="96" viewBox="0 0 96 96" fill="none" xmlns="http://www.w3.org/2000/svg">
<path fill-rule="evenodd" clip-rule="evenodd" d="M34.3355 15.8794C37.8394 15.7181 38.9566 15.6823 47.882 15.6823C56.8075 15.6823 57.9246 15.7211 61.4255 15.8794C64.9264 16.0377 67.3161 16.5963 69.407 17.4058C71.5966 18.2332 73.583 19.5266 75.2259 21.1994C76.8987 22.8393 78.1891 24.8228 79.0135 27.0153C79.826 29.1063 80.3816 31.496 80.5429 34.9909C80.7042 38.5007 80.7401 39.6179 80.7401 48.5403C80.7401 57.4658 80.7013 58.583 80.5429 62.0868C80.3846 65.5817 79.826 67.9714 79.0135 70.0624C78.1891 72.2552 76.8965 74.2419 75.2259 75.8842C73.583 77.557 71.5966 78.8474 69.407 79.6719C67.3161 80.4844 64.9264 81.04 61.4315 81.2013C57.9246 81.3626 56.8075 81.3984 47.882 81.3984C38.9566 81.3984 37.8394 81.3596 34.3355 81.2013C30.8406 81.043 28.4509 80.4844 26.36 79.6719C24.1672 78.8473 22.1805 77.5548 20.5381 75.8842C18.8665 74.2433 17.5729 72.2576 16.7475 70.0654C15.938 67.9744 15.3824 65.5847 15.2211 62.0898C15.0598 58.58 15.0239 57.4628 15.0239 48.5403C15.0239 39.6149 15.0628 38.4977 15.2211 34.9968C15.3794 31.496 15.938 29.1063 16.7475 27.0153C17.5741 24.823 18.8687 22.8373 20.5411 21.1964C22.1811 19.5252 24.1659 18.2316 26.357 17.4058C28.4479 16.5963 30.8376 16.0407 34.3325 15.8794H34.3355ZM61.1597 21.7939C57.6946 21.6355 56.6551 21.6027 47.882 21.6027C39.1089 21.6027 38.0694 21.6355 34.6044 21.7939C31.3992 21.9402 29.6607 22.4749 28.5017 22.926C26.9693 23.5234 25.8731 24.2313 24.723 25.3814C23.6329 26.4419 22.7939 27.733 22.2676 29.16C21.8166 30.319 21.2819 32.0575 21.1355 35.2627C20.9772 38.7277 20.9444 39.7672 20.9444 48.5403C20.9444 57.3134 20.9772 58.353 21.1355 61.818C21.2819 65.0231 21.8166 66.7616 22.2676 67.9206C22.7934 69.3455 23.6327 70.6389 24.723 71.6993C25.7835 72.7896 27.0769 73.629 28.5017 74.1547C29.6607 74.6058 31.3992 75.1404 34.6044 75.2868C38.0694 75.4451 39.1059 75.478 47.882 75.478C56.6581 75.478 57.6946 75.4451 61.1597 75.2868C64.3648 75.1404 66.1033 74.6058 67.2623 74.1547C68.7947 73.5573 69.8909 72.8493 71.041 71.6993C72.1313 70.6389 72.9706 69.3455 73.4964 67.9206C73.9474 66.7616 74.4821 65.0231 74.6285 61.818C74.7868 58.353 74.8197 57.3134 74.8197 48.5403C74.8197 39.7672 74.7868 38.7277 74.6285 35.2627C74.4821 32.0575 73.9474 30.319 73.4964 29.16C72.899 27.6277 72.191 26.5314 71.041 25.3814C69.9803 24.2913 68.6893 23.4523 67.2623 22.926C66.1033 22.4749 64.3648 21.9402 61.1597 21.7939ZM43.6851 58.6696C46.029 59.6453 48.6389 59.7769 51.069 59.0421C53.4992 58.3073 55.5989 56.7516 57.0094 54.6407C58.42 52.5298 59.0539 49.9947 58.803 47.4683C58.552 44.9419 57.4318 42.581 55.6335 40.7888C54.4872 39.6432 53.1011 38.766 51.5751 38.2203C50.049 37.6747 48.421 37.4742 46.8081 37.6333C45.1953 37.7924 43.6378 38.3071 42.2478 39.1403C40.8577 39.9736 39.6697 41.1047 38.7693 42.4522C37.8688 43.7997 37.2784 45.3301 37.0404 46.9332C36.8024 48.5363 36.9228 50.1722 37.3929 51.7231C37.8631 53.2741 38.6712 54.7016 39.7593 55.9027C40.8473 57.1038 42.1881 58.0488 43.6851 58.6696ZM35.9396 36.5979C37.5079 35.0296 39.3697 33.7856 41.4188 32.9368C43.4679 32.0881 45.6641 31.6512 47.882 31.6512C50.0999 31.6512 52.2961 32.0881 54.3452 32.9368C56.3943 33.7856 58.2561 35.0296 59.8244 36.5979C61.3927 38.1662 62.6368 40.0281 63.4855 42.0771C64.3343 44.1262 64.7711 46.3224 64.7711 48.5403C64.7711 50.7582 64.3343 52.9544 63.4855 55.0035C62.6368 57.0526 61.3927 58.9145 59.8244 60.4828C56.6571 63.6501 52.3613 65.4295 47.882 65.4295C43.4027 65.4295 39.1069 63.6501 35.9396 60.4828C32.7723 57.3154 30.9929 53.0196 30.9929 48.5403C30.9929 44.0611 32.7723 39.7652 35.9396 36.5979ZM68.5169 34.1664C68.9055 33.7998 69.2166 33.3589 69.4318 32.8699C69.647 32.3809 69.7619 31.8537 69.7697 31.3195C69.7775 30.7853 69.678 30.255 69.4772 29.7599C69.2763 29.2648 68.9782 28.8151 68.6004 28.4373C68.2226 28.0595 67.7729 27.7614 67.2778 27.5605C66.7827 27.3596 66.2524 27.2602 65.7182 27.268C65.184 27.2757 64.6568 27.3906 64.1677 27.6058C63.6787 27.821 63.2379 28.1322 62.8713 28.5208C62.1583 29.2766 61.7679 30.2806 61.7831 31.3195C61.7982 32.3584 62.2177 33.3506 62.9524 34.0853C63.6871 34.82 64.6792 35.2395 65.7182 35.2546C66.7571 35.2698 67.7611 34.8794 68.5169 34.1664Z" fill="black"/>
</svg>
