<svg width="64" height="64" viewBox="0 0 64 64" fill="none" xmlns="http://www.w3.org/2000/svg">
<g clip-path="url(#clip0_201_2605)">
<path d="M54.5305 54.5316H45.0478V39.6809C45.0478 36.1396 44.9845 31.5809 40.1158 31.5809C35.1768 31.5809 34.421 35.4394 34.421 39.4231V54.5306H24.9385V23.9916H34.0418V28.1651H34.1693C35.0803 26.6074 36.3968 25.3259 37.9785 24.4571C39.5602 23.5884 41.3479 23.1649 43.1513 23.2319C52.7625 23.2319 54.5345 29.5539 54.5345 37.7784L54.5305 54.5316ZM14.2385 19.8174C11.1993 19.8179 8.73501 17.3544 8.73451 14.3151C8.73401 11.2759 11.1973 8.8116 14.2365 8.8111C17.2758 8.81035 19.74 11.2739 19.7405 14.3131C19.7408 15.7726 19.1613 17.1725 18.1294 18.2047C17.0976 19.2369 15.698 19.817 14.2385 19.8174ZM18.98 54.5319H9.48726V23.9916H18.9798V54.5316L18.98 54.5319ZM59.258 0.0043528H4.72226C2.14476 -0.0246472 0.0310117 2.0401 -0.000488281 4.6176V59.3809C0.0300117 61.9596 2.14351 64.0264 4.72201 63.9994H59.258C61.842 64.0313 63.9638 61.9646 63.9995 59.3809V4.61335C63.9628 2.03085 61.8408 -0.0336472 59.258 0.000102797" fill="black"/>
</g>
<defs>
<clipPath id="clip0_201_2605">
<rect width="64" height="64" fill="white"/>
</clipPath>
</defs>
</svg>
