<svg width="121" height="124" viewBox="0 0 121 124" fill="none" xmlns="http://www.w3.org/2000/svg">
<path d="M32.1879 80.1486C24.8677 69.9088 21.589 57.2133 23.0078 44.6019C24.4267 31.9904 30.4384 20.3932 39.8403 12.1304C49.2422 3.86763 61.3408 -0.451413 73.7158 0.0373852C86.0907 0.526184 97.8293 5.78678 106.583 14.7667C115.337 23.7467 120.46 35.7837 120.928 48.4696C121.396 61.1556 117.174 73.5548 109.107 83.1868C101.04 92.8188 89.7223 98.9732 77.4187 100.419C65.1152 101.864 52.7329 98.494 42.7491 90.9827H42.7567C42.5299 91.2927 42.2879 91.5872 42.0158 91.8739L12.9101 121.71C11.4926 123.164 9.56955 123.982 7.56413 123.983C5.55871 123.983 3.63514 123.167 2.21659 121.714C0.798046 120.261 0.000709374 118.29 4.73106e-07 116.234C-0.000708428 114.178 0.795271 112.206 2.21282 110.752L31.3185 80.9158C31.5888 80.6354 31.8794 80.3763 32.1879 80.1409V80.1486ZM30.2374 50.3587C30.2374 55.9561 31.3129 61.4987 33.4025 66.67C35.4921 71.8413 38.5548 76.5401 42.4158 80.498C46.2768 84.456 50.8605 87.5956 55.9052 89.7376C60.9498 91.8796 66.3567 92.9821 71.817 92.9821C77.2773 92.9821 82.6841 91.8796 87.7288 89.7376C92.7735 87.5956 97.3572 84.456 101.218 80.498C105.079 76.5401 108.142 71.8413 110.231 66.67C112.321 61.4987 113.397 55.9561 113.397 50.3587C113.397 39.0543 109.016 28.2129 101.218 20.2194C93.4205 12.226 82.8446 7.73535 71.817 7.73535C60.7894 7.73535 50.2135 12.226 42.4158 20.2194C34.6181 28.2129 30.2374 39.0543 30.2374 50.3587Z" fill="black"/>
<path fill-rule="evenodd" clip-rule="evenodd" d="M50.3502 67.9275V44.1714H53.9155V67.9275C53.9155 68.4122 54.1033 68.877 54.4377 69.2197C54.772 69.5624 55.2254 69.7549 55.6982 69.7549H87.7857C88.2585 69.7549 88.7119 69.5624 89.0462 69.2197C89.3806 68.877 89.5684 68.4122 89.5684 67.9275V44.1714H93.1337V67.9275C93.1337 69.3815 92.5702 70.7759 91.5673 71.804C90.5643 72.8321 89.2041 73.4097 87.7857 73.4097H55.6982C54.2798 73.4097 52.9195 72.8321 51.9166 71.804C50.9137 70.7759 50.3502 69.3815 50.3502 67.9275ZM89.5684 27.7249V40.5166L82.4378 33.207V27.7249C82.4378 27.2402 82.6256 26.7754 82.9599 26.4327C83.2942 26.09 83.7477 25.8975 84.2204 25.8975H87.7857C88.2585 25.8975 88.7119 26.09 89.0462 26.4327C89.3806 26.7754 89.5684 27.2402 89.5684 27.7249Z" fill="#E73336"/>
<path fill-rule="evenodd" clip-rule="evenodd" d="M69.2211 24.0701C69.8897 23.3849 70.7964 23 71.7417 23C72.6871 23 73.5938 23.3849 74.2624 24.0701L97.9608 48.3598C98.2956 48.7029 98.4836 49.1683 98.4836 49.6536C98.4836 50.1389 98.2956 50.6043 97.9608 50.9474C97.6261 51.2905 97.1721 51.4833 96.6987 51.4833C96.2253 51.4833 95.7713 51.2905 95.4366 50.9474L71.7417 26.654L48.0469 50.9474C47.7121 51.2905 47.2581 51.4833 46.7848 51.4833C46.3114 51.4833 45.8574 51.2905 45.5226 50.9474C45.1879 50.6043 44.9999 50.1389 44.9999 49.6536C44.9999 49.1683 45.1879 48.7029 45.5226 48.3598L69.2211 24.0701Z" fill="#E73336"/>
</svg>
