<svg width="54" height="51" viewBox="0 0 54 51" fill="none" xmlns="http://www.w3.org/2000/svg">
<path fill-rule="evenodd" clip-rule="evenodd" d="M5.35059 44.9275V21.1714H8.91587V44.9275C8.91587 45.4122 9.10368 45.877 9.43799 46.2197C9.7723 46.5624 10.2257 46.7549 10.6985 46.7549H42.7861C43.2589 46.7549 43.7123 46.5624 44.0466 46.2197C44.3809 45.877 44.5687 45.4122 44.5687 44.9275V21.1714H48.134V44.9275C48.134 46.3815 47.5705 47.7759 46.5676 48.804C45.5647 49.8321 44.2044 50.4097 42.7861 50.4097H10.6985C9.28015 50.4097 7.91989 49.8321 6.91696 48.804C5.91403 47.7759 5.35059 46.3815 5.35059 44.9275ZM44.5687 4.72485V17.5166L37.4381 10.207V4.72485C37.4381 4.2402 37.6259 3.7754 37.9603 3.43269C38.2946 3.08999 38.748 2.89746 39.2208 2.89746H42.7861C43.2589 2.89746 43.7123 3.08999 44.0466 3.43269C44.3809 3.7754 44.5687 4.2402 44.5687 4.72485Z" fill="#E73336"/>
<path fill-rule="evenodd" clip-rule="evenodd" d="M24.2212 1.07007C24.8898 0.384906 25.7965 0 26.7419 0C27.6873 0 28.5939 0.384906 29.2625 1.07007L52.961 25.3598C53.2957 25.7029 53.4838 26.1683 53.4838 26.6536C53.4838 27.1389 53.2957 27.6043 52.961 27.9474C52.6262 28.2905 52.1722 28.4833 51.6989 28.4833C51.2255 28.4833 50.7715 28.2905 50.4368 27.9474L26.7419 3.65401L3.047 27.9474C2.71227 28.2905 2.25828 28.4833 1.78489 28.4833C1.31151 28.4833 0.857516 28.2905 0.522783 27.9474C0.188051 27.6043 0 27.1389 0 26.6536C0 26.1683 0.188051 25.7029 0.522783 25.3598L24.2212 1.07007Z" fill="#E73336"/>
</svg>
