<svg width="121" height="124" viewBox="0 0 121 124" fill="none" xmlns="http://www.w3.org/2000/svg">
<path d="M32.188 80.1486C24.8678 69.9088 21.5891 57.2133 23.008 44.6019C24.4268 31.9904 30.4386 20.3932 39.8404 12.1304C49.2423 3.86763 61.341 -0.451413 73.7159 0.0373852C86.0908 0.526184 97.8294 5.78678 106.583 14.7667C115.337 23.7467 120.46 35.7837 120.928 48.4696C121.396 61.1556 117.174 73.5548 109.107 83.1868C101.04 92.8188 89.7225 98.9732 77.4189 100.419C65.1153 101.864 52.733 98.494 42.7492 90.9827H42.7568C42.53 91.2927 42.2881 91.5872 42.0159 91.8739L12.9102 121.71C11.4927 123.164 9.56969 123.982 7.56426 123.983C5.55885 123.983 3.63528 123.167 2.21673 121.714C0.79818 120.261 0.000846863 118.29 0.000137329 116.234C-0.000572205 114.178 0.795403 112.206 2.21295 110.752L31.3186 80.9158C31.5889 80.6354 31.8796 80.3763 32.188 80.1409V80.1486ZM30.2376 50.3587C30.2376 55.9561 31.313 61.4987 33.4026 66.67C35.4922 71.8413 38.5549 76.5401 42.4159 80.498C46.277 84.456 50.8606 87.5956 55.9053 89.7376C60.95 91.8796 66.3568 92.9821 71.8171 92.9821C77.2774 92.9821 82.6843 91.8796 87.7289 89.7376C92.7736 87.5956 97.3573 84.456 101.218 80.498C105.079 76.5401 108.142 71.8413 110.232 66.67C112.321 61.4987 113.397 55.9561 113.397 50.3587C113.397 39.0543 109.016 28.2129 101.218 20.2194C93.4206 12.226 82.8447 7.73535 71.8171 7.73535C60.7895 7.73535 50.2136 12.226 42.4159 20.2194C34.6183 28.2129 30.2376 39.0543 30.2376 50.3587Z" fill="black"/>
</svg>
