<svg width="82" height="83" viewBox="0 0 82 83" fill="none" xmlns="http://www.w3.org/2000/svg">
<path d="M41.1939 68.9117C48.4088 68.9117 55.3282 66.0455 60.43 60.9438C65.5317 55.8421 68.3978 48.9227 68.3978 41.7077C68.3978 34.4928 65.5317 27.5734 60.43 22.4716C55.3282 17.3699 48.4088 14.5038 41.1939 14.5038C33.9789 14.5038 27.0595 17.3699 21.9578 22.4716C16.8561 27.5734 13.9899 34.4928 13.9899 41.7077C13.9899 48.9227 16.8561 55.8421 21.9578 60.9438C27.0595 66.0455 33.9789 68.9117 41.1939 68.9117ZM41.1939 75.7126C22.413 75.7126 7.18896 60.4886 7.18896 41.7077C7.18896 22.9268 22.413 7.70282 41.1939 7.70282C59.9748 7.70282 75.1988 22.9268 75.1988 41.7077C75.1988 60.4886 59.9748 75.7126 41.1939 75.7126Z" fill="black"/>
<path d="M58.1963 31.326C56.9449 31.8701 55.6017 32.2441 54.1905 32.4074C55.6323 31.5572 56.7341 30.2107 57.2578 28.609C55.8839 29.4097 54.3848 29.973 52.8235 30.2753C52.1668 29.5869 51.3768 29.0395 50.5016 28.6665C49.6264 28.2936 48.6844 28.1027 47.733 28.1057C43.8803 28.1057 40.7586 31.1832 40.7586 34.9747C40.7586 35.512 40.8198 36.0357 40.9388 36.539C38.1753 36.4077 35.4695 35.7019 32.9941 34.4665C30.5186 33.2311 28.3279 31.4933 26.5615 29.3639C25.9412 30.4082 25.6145 31.6008 25.6162 32.8154C25.6162 35.1958 26.8506 37.3041 28.7209 38.5317C27.6138 38.4969 26.5305 38.2022 25.5584 37.6713V37.7563C25.5689 39.3527 26.1324 40.8961 27.153 42.1238C28.1735 43.3514 29.588 44.1874 31.1556 44.4893C30.1265 44.7614 29.0497 44.8009 28.0034 44.6049C28.4595 45.9783 29.3318 47.1756 30.4994 48.0305C31.6669 48.8854 33.0717 49.3556 34.5187 49.3758C32.0362 51.2888 28.9883 52.3223 25.8542 52.3138C25.2932 52.3138 24.7389 52.2798 24.1914 52.2186C27.3895 54.2429 31.0977 55.315 34.8826 55.3097C47.716 55.3097 54.7312 44.843 54.7312 35.7637L54.7074 34.8727C56.0754 33.9113 57.2575 32.7096 58.1963 31.326Z" fill="black"/>
</svg>
